<?xml version="1.0" encoding="utf-8"?>
<!-- Generator: Adobe Illustrator 28.0.0, SVG Export Plug-In . SVG Version: 6.00 Build 0)  -->
<svg version="1.1" id="Warstwa_2_00000019662540434421607410000000396926532465218948_"
	 xmlns="http://www.w3.org/2000/svg" xmlns:xlink="http://www.w3.org/1999/xlink" x="0px" y="0px" viewBox="0 0 77.8 67"
	 style="enable-background:new 0 0 77.8 67;" xml:space="preserve">
<style type="text/css">
	.st0{opacity:0.5;fill:#FFFFFF;enable-background:new    ;}
	.st1{fill:#FFFFFF;}
</style>
<g id="Warstwa_2-2">
	<path class="st0" d="M39.2,0C49.1,0,59,0,68.9,0c7.1,0,8.9,1.8,8.9,8.7c0,17.5,0,35,0,52.6c0,1,0,2-0.1,3c-0.1,1.4-0.6,2.7-2.3,2.7
		c-1.6,0-2.3-1.2-2.4-2.6c-0.2-1.5-0.1-3-0.1-4.5c0-16.5-0.1-33.1,0.1-49.6c0-4.1-1.2-5.4-5.4-5.4c-19.2,0.2-38.3,0.2-57.5,0
		c-4.2,0-5.3,1.5-5.3,5.5C5,26.7,4.9,43.1,4.9,59.5c0,1.2,0,2.3,0,3.5c-0.1,1.8-0.1,4.1-2.6,4C-0.3,66.8,0,64.5,0,62.7
		c0-18.5-0.1-37,0-55.5C0.1,2,2.2,0.1,8,0C18.4-0.1,28.8,0,39.2,0z"/>
	<path class="st1" d="M69.2,12.5c0-2.8-1-3.7-3.8-3.6C56.7,9,47.9,9,39.2,9C30.3,9,21.3,9,12.4,8.9c-2.8,0-3.8,0.8-3.8,3.6
		c0.1,16.7,0.1,33.4,0.1,50.1c0,2.7,0.7,3.8,3.6,3.8c17.7-0.1,35.4-0.1,53,0c2.9,0,3.7-1.1,3.7-3.8C69.1,45.9,69.1,29.2,69.2,12.5
		L69.2,12.5z M31.5,15c0-1.1,0.9-2.1,2.1-2.1h10.5c1.1,0,2.1,0.9,2.1,2.1v10.5c0,1.1-0.9,2.1-2.1,2.1H33.6c-1.1,0-2.1-0.9-2.1-2.1
		C31.5,25.5,31.5,15,31.5,15z M27.3,25.5c0,1.1-0.9,2.1-2.1,2.1H14.7c-1.1,0-2.1-0.9-2.1-2.1V15c0-1.1,0.9-2.1,2.1-2.1h10.5
		c1.1,0,2.1,0.9,2.1,2.1V25.5z M44.9,60.7h-12c-0.8,0-1.5-0.7-1.5-1.5s0.7-1.5,1.5-1.5h12c0.8,0,1.5,0.7,1.5,1.5
		S45.7,60.7,44.9,60.7z M65.1,25.5c0,1.1-0.9,2.1-2.1,2.1H52.5c-1.1,0-2.1-0.9-2.1-2.1V15c0-1.1,0.9-2.1,2.1-2.1H63
		c1.1,0,2.1,0.9,2.1,2.1V25.5z"/>
</g>
</svg>
