<?xml version="1.0" encoding="UTF-8"?><svg id="Warstwa_2" xmlns="http://www.w3.org/2000/svg" viewBox="0 0 77.85 67"><defs><style>.cls-1{opacity:.5;}.cls-2{fill:#fff;stroke-width:0px;}</style></defs><g id="Warstwa_2-2"><path class="cls-2" d="m69.21,38.63c.02-2.83-.98-3.68-3.75-3.63-8.76.15-17.51.06-26.27.06-8.92,0-17.85.09-26.77-.05-2.75-.04-3.79.75-3.77,3.6.12,16.69.14-9.62.1,7.07,0,2.66.73,3.84,3.65,3.82,17.68-.1,35.36-.1,53.04,0,2.9.02,3.68-1.11,3.67-3.79-.04-16.69-.02,9.62.1-7.07Z"/><path class="cls-2" d="m69.21,21.13c.02-2.83-.98-3.68-3.75-3.63-8.76.15-17.51.06-26.27.06-8.92,0-17.85.09-26.77-.05-2.75-.04-3.79.75-3.77,3.6.12,16.69.14-9.62.1,7.07,0,2.66.73,3.84,3.65,3.82,17.68-.1,35.36-.1,53.04,0,2.9.02,3.68-1.11,3.67-3.79-.04-16.69-.02,9.62.1-7.07Z"/><g class="cls-1"><path class="cls-2" d="m75.43,0c-1.34,0-2.43,1.09-2.43,2.43v2.39h-8.23v4.85h8.23v12.65h-8.23v4.85h8.23v12.65h-8.23v4.85h8.23v12.65h-8.23v4.85h8.23v2.39c0,1.34,1.09,2.43,2.43,2.43s2.43-1.09,2.43-2.43V2.43c0-1.34-1.09-2.43-2.43-2.43Z"/><path class="cls-2" d="m2.43,0C1.09,0,0,1.09,0,2.43v62.15c0,1.34,1.09,2.43,2.43,2.43s2.43-1.09,2.43-2.43V2.43c0-1.34-1.09-2.43-2.43-2.43Z"/></g><path class="cls-2" d="m69.21,3.63c.02-2.83-.98-3.68-3.75-3.63-8.76.15-17.51.06-26.27.06-8.92,0-17.85.09-26.77-.05-2.75-.04-3.79.75-3.77,3.6.12,16.69.14-9.62.1,7.07,0,2.66.73,3.84,3.65,3.82,17.68-.1,35.36-.1,53.04,0,2.9.02,3.68-1.11,3.67-3.79-.04-16.69-.02,9.62.1-7.07Z"/><path class="cls-2" d="m69.21,56.14c.02-2.83-.98-3.68-3.75-3.63-8.76.15-17.51.06-26.27.06-8.92,0-17.85.09-26.77-.05-2.75-.04-3.79.75-3.77,3.6.12,16.69.14-9.62.1,7.07,0,2.66.73,3.84,3.65,3.82,17.68-.1,35.36-.1,53.04,0,2.9.02,3.68-1.11,3.67-3.79-.04-16.69-.02,9.62.1-7.07Z"/></g></svg>